<svg xmlns="http://www.w3.org/2000/svg" viewBox="0 0 800 1000" role="img" aria-label="Layered gold necklace and jhumka earrings">
<defs>
  <linearGradient id="gold" x1="0" y1="0" x2="1" y2="1">
    <stop offset="0" stop-color="#F7E6B8"/><stop offset=".28" stop-color="#D6B06E"/>
    <stop offset=".62" stop-color="#A57C3E"/><stop offset="1" stop-color="#E2C184"/>
  </linearGradient>
  <linearGradient id="goldV" x1="0" y1="0" x2="0" y2="1">
    <stop offset="0" stop-color="#F3DCA0"/><stop offset=".5" stop-color="#B98F50"/><stop offset="1" stop-color="#8F6E3B"/>
  </linearGradient>
  <radialGradient id="gem" cx=".32" cy=".28" r=".85">
    <stop offset="0" stop-color="#FFFFFF"/><stop offset=".5" stop-color="#F5E7EC"/><stop offset="1" stop-color="#CDB6C0"/>
  </radialGradient>
  <radialGradient id="light" cx=".5" cy=".3" r=".8">
    <stop offset="0" stop-color="#fff" stop-opacity=".8"/><stop offset="1" stop-color="#fff" stop-opacity="0"/>
  </radialGradient>
  <linearGradient id="table" x1="0" y1="0" x2="0" y2="1">
    <stop offset="0" stop-color="#5A4630" stop-opacity="0"/><stop offset="1" stop-color="#5A4630" stop-opacity=".2"/>
  </linearGradient>
  <filter id="blur" x="-40%" y="-60%" width="180%" height="220%"><feGaussianBlur stdDeviation="16"/></filter>
  <filter id="blur5" x="-20%" y="-20%" width="140%" height="140%"><feGaussianBlur stdDeviation="5"/></filter>
</defs>
<rect width="800" height="1000" fill="#E8D5BA"/>
<rect width="800" height="1000" fill="url(#light)"/>
<rect y="610" width="800" height="390" fill="url(#table)"/>
<ellipse cx="400" cy="930" rx="280" ry="28" fill="#4A3826" opacity="0.38" filter="url(#blur)"/><path d="M170 150 Q400 640 630 150" fill="none" stroke="#4A3826" stroke-opacity=".28" stroke-width="7" transform="translate(0 12)" filter="url(#blur5)"/>
  <path d="M170 150 Q400 640 630 150" fill="none" stroke="url(#gold)" stroke-width="2.5"/>
  <path d="M170 150 Q400 640 630 150" fill="none" stroke="url(#gold)" stroke-width="8" stroke-linecap="round" stroke-dasharray="0.1 11"/><path d="M120 175 Q400 900 680 175" fill="none" stroke="#4A3826" stroke-opacity=".28" stroke-width="7" transform="translate(0 12)" filter="url(#blur5)"/>
  <path d="M120 175 Q400 900 680 175" fill="none" stroke="url(#gold)" stroke-width="2.5"/>
  <path d="M120 175 Q400 900 680 175" fill="none" stroke="url(#gold)" stroke-width="8" stroke-linecap="round" stroke-dasharray="0.1 11"/>
     <g><circle cx="400" cy="360" r="40" fill="url(#goldV)"/><circle cx="400" cy="360" r="40" fill="none" stroke="#fff" stroke-opacity=".35" stroke-width="2"/><circle cx="400" cy="360" r="30" fill="url(#gem)"/><line x1="412" y1="360" x2="430" y2="360" stroke="#fff" stroke-opacity=".75" stroke-width="1.6"/><line x1="408.4852813742386" y1="368.4852813742386" x2="421.2132034355964" y2="381.2132034355964" stroke="#fff" stroke-opacity=".75" stroke-width="1.6"/><line x1="400" y1="372" x2="400" y2="390" stroke="#fff" stroke-opacity=".75" stroke-width="1.6"/><line x1="391.5147186257614" y1="368.4852813742386" x2="378.7867965644036" y2="381.2132034355964" stroke="#fff" stroke-opacity=".75" stroke-width="1.6"/><line x1="388" y1="360" x2="370" y2="360" stroke="#fff" stroke-opacity=".75" stroke-width="1.6"/><line x1="391.5147186257614" y1="351.5147186257614" x2="378.7867965644036" y2="338.7867965644036" stroke="#fff" stroke-opacity=".75" stroke-width="1.6"/><line x1="400" y1="348" x2="400" y2="330" stroke="#fff" stroke-opacity=".75" stroke-width="1.6"/><line x1="408.4852813742386" y1="351.5147186257614" x2="421.2132034355964" y2="338.7867965644036" stroke="#fff" stroke-opacity=".75" stroke-width="1.6"/><polygon points="411.64088210964223,364.82181124780016 404.82181124780016,371.64088210964223 395.17818875219984,371.64088210964223 388.35911789035777,364.82181124780016 388.35911789035777,355.17818875219984 395.17818875219984,348.35911789035777 404.82181124780016,348.35911789035777 411.64088210964223,355.17818875219984" fill="none" stroke="#fff" stroke-opacity=".85" stroke-width="1.8"/><ellipse cx="390.4" cy="348.6" rx="6" ry="3.5999999999999996" fill="#fff" opacity=".85" transform="rotate(-30 390.4 348.6)"/></g><g transform="translate(400 640) scale(1.25)">
    <path d="M0 -70 C52 -18 54 46 0 74 C-54 46 -52 -18 0 -70Z" fill="url(#gem)" stroke="url(#goldV)" stroke-width="7.2"/>
    <path d="M0 -70V74M-38 -2H38M0 -70L-38 -2L0 74M0 -70L38 -2L0 74" fill="none" stroke="#fff" stroke-opacity=".8" stroke-width="1.28"/>
    <ellipse cx="-16" cy="-24" rx="9" ry="16" fill="#fff" opacity=".75" transform="rotate(18 -16 -24)"/>
  </g>
     <ellipse cx="210" cy="900" rx="70" ry="14" fill="#4A3826" opacity="0.3" filter="url(#blur)"/><ellipse cx="590" cy="900" rx="70" ry="14" fill="#4A3826" opacity="0.3" filter="url(#blur)"/><g transform="translate(205 720) scale(0.85) translate(-205 -720)">
    <circle cx="205" cy="694" r="13" fill="none" stroke="url(#gold)" stroke-width="5"/>
    <path d="M141 794 C141 698 269 698 269 794Z" fill="url(#goldV)"/>
    <path d="M141 794 C141 698 269 698 269 794" fill="none" stroke="#fff" stroke-opacity=".35" stroke-width="2"/>
    <path d="M161 786 C161 726 249 726 249 786" fill="none" stroke="#fff" stroke-opacity=".6" stroke-width="3" stroke-linecap="round" stroke-dasharray="0.1 9"/>
    <path d="M181 786 C181 748 229 748 229 786" fill="none" stroke="#fff" stroke-opacity=".5" stroke-width="3" stroke-linecap="round" stroke-dasharray="0.1 8"/>
    <ellipse cx="205" cy="796" rx="68" ry="11" fill="url(#gold)"/>
    <circle cx="205" cy="750" r="8" fill="url(#gem)"/>
    <line x1="145" y1="796" x2="145" y2="810" stroke="#A57C3E" stroke-width="1.5"/><circle cx="145" cy="818" r="8" fill="url(#gold)"/><circle cx="143" cy="815" r="2.4" fill="#fff" opacity=".7"/><line x1="165" y1="796" x2="165" y2="820" stroke="#A57C3E" stroke-width="1.5"/><circle cx="165" cy="828" r="8" fill="url(#gold)"/><circle cx="163" cy="825" r="2.4" fill="#fff" opacity=".7"/><line x1="185" y1="796" x2="185" y2="814" stroke="#A57C3E" stroke-width="1.5"/><circle cx="185" cy="822" r="8" fill="url(#gold)"/><circle cx="183" cy="819" r="2.4" fill="#fff" opacity=".7"/><line x1="205" y1="796" x2="205" y2="824" stroke="#A57C3E" stroke-width="1.5"/><circle cx="205" cy="832" r="10" fill="url(#gold)"/><circle cx="203" cy="829" r="2.4" fill="#fff" opacity=".7"/><line x1="225" y1="796" x2="225" y2="814" stroke="#A57C3E" stroke-width="1.5"/><circle cx="225" cy="822" r="8" fill="url(#gold)"/><circle cx="223" cy="819" r="2.4" fill="#fff" opacity=".7"/><line x1="245" y1="796" x2="245" y2="820" stroke="#A57C3E" stroke-width="1.5"/><circle cx="245" cy="828" r="8" fill="url(#gold)"/><circle cx="243" cy="825" r="2.4" fill="#fff" opacity=".7"/><line x1="265" y1="796" x2="265" y2="810" stroke="#A57C3E" stroke-width="1.5"/><circle cx="265" cy="818" r="8" fill="url(#gold)"/><circle cx="263" cy="815" r="2.4" fill="#fff" opacity=".7"/>
  </g><g transform="translate(595 720) scale(0.85) translate(-595 -720)">
    <circle cx="595" cy="694" r="13" fill="none" stroke="url(#gold)" stroke-width="5"/>
    <path d="M531 794 C531 698 659 698 659 794Z" fill="url(#goldV)"/>
    <path d="M531 794 C531 698 659 698 659 794" fill="none" stroke="#fff" stroke-opacity=".35" stroke-width="2"/>
    <path d="M551 786 C551 726 639 726 639 786" fill="none" stroke="#fff" stroke-opacity=".6" stroke-width="3" stroke-linecap="round" stroke-dasharray="0.1 9"/>
    <path d="M571 786 C571 748 619 748 619 786" fill="none" stroke="#fff" stroke-opacity=".5" stroke-width="3" stroke-linecap="round" stroke-dasharray="0.1 8"/>
    <ellipse cx="595" cy="796" rx="68" ry="11" fill="url(#gold)"/>
    <circle cx="595" cy="750" r="8" fill="url(#gem)"/>
    <line x1="535" y1="796" x2="535" y2="810" stroke="#A57C3E" stroke-width="1.5"/><circle cx="535" cy="818" r="8" fill="url(#gold)"/><circle cx="533" cy="815" r="2.4" fill="#fff" opacity=".7"/><line x1="555" y1="796" x2="555" y2="820" stroke="#A57C3E" stroke-width="1.5"/><circle cx="555" cy="828" r="8" fill="url(#gold)"/><circle cx="553" cy="825" r="2.4" fill="#fff" opacity=".7"/><line x1="575" y1="796" x2="575" y2="814" stroke="#A57C3E" stroke-width="1.5"/><circle cx="575" cy="822" r="8" fill="url(#gold)"/><circle cx="573" cy="819" r="2.4" fill="#fff" opacity=".7"/><line x1="595" y1="796" x2="595" y2="824" stroke="#A57C3E" stroke-width="1.5"/><circle cx="595" cy="832" r="10" fill="url(#gold)"/><circle cx="593" cy="829" r="2.4" fill="#fff" opacity=".7"/><line x1="615" y1="796" x2="615" y2="814" stroke="#A57C3E" stroke-width="1.5"/><circle cx="615" cy="822" r="8" fill="url(#gold)"/><circle cx="613" cy="819" r="2.4" fill="#fff" opacity=".7"/><line x1="635" y1="796" x2="635" y2="820" stroke="#A57C3E" stroke-width="1.5"/><circle cx="635" cy="828" r="8" fill="url(#gold)"/><circle cx="633" cy="825" r="2.4" fill="#fff" opacity=".7"/><line x1="655" y1="796" x2="655" y2="810" stroke="#A57C3E" stroke-width="1.5"/><circle cx="655" cy="818" r="8" fill="url(#gold)"/><circle cx="653" cy="815" r="2.4" fill="#fff" opacity=".7"/>
  </g>
<text x="768" y="976" text-anchor="end" font-family="Georgia,serif" font-size="17" fill="#7A7066" opacity=".6">Sample image</text>
</svg>
